<svg width="204" height="20" viewBox="0 0 204 20" fill="none" xmlns="http://www.w3.org/2000/svg">
<path d="M2.89947 2.81768V8.95028H4.54819C5.05986 8.95028 5.4673 8.88582 5.77051 8.75691C6.07373 8.60958 6.31061 8.407 6.48117 8.14917C6.63278 7.89135 6.737 7.57827 6.79386 7.20995C6.85071 6.82321 6.87913 6.38122 6.87913 5.88398C6.87913 5.38674 6.85071 4.95396 6.79386 4.58564C6.737 4.1989 6.6233 3.8674 6.45274 3.59116C6.09268 3.07551 5.41045 2.81768 4.40606 2.81768H2.89947ZM0 19.8343V0.165747H4.66189C8.07303 0.165747 9.77861 2.09024 9.77861 5.93923C9.77861 7.09945 9.5891 8.08472 9.21008 8.89503C8.85002 9.70534 8.20569 10.3591 7.2771 10.8564L10.404 19.8343H7.33395L4.63347 11.4365H2.89947V19.8343H0Z" fill="black"/>
<path d="M14.3774 19.8343V0.165747H23.019V2.81768H17.2769V8.59116H22.2799V11.2431H17.2769V17.0166H23.019V19.8343H14.3774Z" fill="black"/>
<path d="M33.0283 12.9558L31.607 5.82873H31.5502L30.1289 12.9558H33.0283ZM25.8649 19.8343L30.3847 0.165747H32.8009L37.3207 19.8343H34.4212L33.5684 15.6077H29.6172L28.7644 19.8343H25.8649Z" fill="black"/>
<path d="M41.0225 19.8343V0.165747H45.3149C46.9825 0.165747 48.2428 0.607736 49.0956 1.49171C49.9673 2.37569 50.4032 3.62799 50.4032 5.24862V14.4475C50.4032 16.2891 49.9389 17.6519 49.0103 18.5359C48.1006 19.4015 46.7836 19.8343 45.059 19.8343H41.0225ZM43.922 2.81768V17.1823H45.258C46.0729 17.1823 46.6509 16.989 46.992 16.6022C47.3331 16.1971 47.5037 15.5709 47.5037 14.7238V5.24862C47.5037 4.47514 47.3426 3.87661 47.0204 3.45304C46.6983 3.02947 46.1108 2.81768 45.258 2.81768H43.922Z" fill="black"/>
<path d="M57.6008 19.8343V11.5193L53.6211 0.165747H56.6911L59.0221 7.98343H59.0789L61.4099 0.165747H64.4799L60.5002 11.5193V19.8343H57.6008Z" fill="black"/>
<path d="M75.7435 19.8343V0.165747H84.3851V2.81768H78.643V8.78453H83.646V11.4365H78.643V19.8343H75.7435Z" fill="black"/>
<path d="M88.3681 4.80663C88.3681 4.01473 88.5102 3.31492 88.7945 2.70718C89.0788 2.09945 89.4578 1.593 89.9315 1.18785C90.3864 0.801106 90.898 0.506446 91.4666 0.303868C92.054 0.101289 92.6415 0 93.229 0C93.8165 0 94.3944 0.101289 94.963 0.303868C95.5504 0.506446 96.0811 0.801106 96.5548 1.18785C97.0097 1.593 97.3792 2.09945 97.6635 2.70718C97.9477 3.31492 98.0899 4.01473 98.0899 4.80663V15.1934C98.0899 16.0221 97.9477 16.7311 97.6635 17.3204C97.3792 17.9098 97.0097 18.3978 96.5548 18.7845C96.0811 19.1897 95.5504 19.4936 94.963 19.6961C94.3944 19.8987 93.8165 20 93.229 20C92.6415 20 92.054 19.8987 91.4666 19.6961C90.898 19.4936 90.3864 19.1897 89.9315 18.7845C89.4578 18.3978 89.0788 17.9098 88.7945 17.3204C88.5102 16.7311 88.3681 16.0221 88.3681 15.1934V4.80663ZM91.2676 15.1934C91.2676 15.8748 91.4571 16.3812 91.8361 16.7127C92.2341 17.0258 92.6984 17.1823 93.229 17.1823C93.7596 17.1823 94.2144 17.0258 94.5934 16.7127C94.9914 16.3812 95.1904 15.8748 95.1904 15.1934V4.80663C95.1904 4.12523 94.9914 3.62799 94.5934 3.31492C94.2144 2.98343 93.7596 2.81768 93.229 2.81768C92.6984 2.81768 92.2341 2.98343 91.8361 3.31492C91.4571 3.62799 91.2676 4.12523 91.2676 4.80663V15.1934Z" fill="black"/>
<path d="M105.816 2.81768V8.95028H107.464C107.976 8.95028 108.383 8.88582 108.687 8.75691C108.99 8.60958 109.227 8.407 109.397 8.14917C109.549 7.89135 109.653 7.57827 109.71 7.20995C109.767 6.82321 109.795 6.38122 109.795 5.88398C109.795 5.38674 109.767 4.95396 109.71 4.58564C109.653 4.1989 109.539 3.8674 109.369 3.59116C109.009 3.07551 108.327 2.81768 107.322 2.81768H105.816ZM102.916 19.8343V0.165747H107.578C110.989 0.165747 112.695 2.09024 112.695 5.93923C112.695 7.09945 112.505 8.08472 112.126 8.89503C111.766 9.70534 111.122 10.3591 110.193 10.8564L113.32 19.8343H110.25L107.55 11.4365H105.816V19.8343H102.916Z" fill="black"/>
<path d="M124.842 19.8343V0.165747H127.741V17.0166H133.484V19.8343H124.842Z" fill="black"/>
<path d="M143.493 12.9558L142.072 5.82873H142.015L140.593 12.9558H143.493ZM136.329 19.8343L140.849 0.165747H143.265L147.785 19.8343H144.886L144.033 15.6077H140.082L139.229 19.8343H136.329Z" fill="black"/>
<path d="M160.868 0.165747V15.4144C160.868 16.0589 160.745 16.6575 160.498 17.2099C160.271 17.744 159.939 18.2228 159.503 18.6464C159.067 19.07 158.565 19.4015 157.997 19.6409C157.428 19.8803 156.822 20 156.177 20C155.533 20 154.927 19.8803 154.358 19.6409C153.809 19.4015 153.316 19.07 152.88 18.6464C152.444 18.2228 152.103 17.744 151.857 17.2099C151.61 16.6575 151.487 16.0589 151.487 15.4144V0.165747H154.387V15.1381C154.387 15.8379 154.557 16.3536 154.898 16.6851C155.239 17.0166 155.666 17.1823 156.177 17.1823C156.689 17.1823 157.115 17.0166 157.457 16.6851C157.798 16.3536 157.968 15.8379 157.968 15.1381V0.165747H160.868Z" fill="black"/>
<path d="M165.751 19.8343V0.165747H168.537L172.914 12.0166H172.971V0.165747H175.871V19.8343H173.142L168.707 8.01105H168.65V19.8343H165.751Z" fill="black"/>
<path d="M189.979 14.2265V15.442C189.979 16.0497 189.856 16.6298 189.61 17.1823C189.383 17.7164 189.06 18.1952 188.643 18.6188C188.227 19.0424 187.734 19.3831 187.165 19.6409C186.616 19.8803 186.019 20 185.374 20C184.825 20 184.266 19.9263 183.697 19.779C183.129 19.6317 182.617 19.3738 182.162 19.0055C181.707 18.6372 181.328 18.1676 181.025 17.5967C180.741 17.0074 180.599 16.2615 180.599 15.3591V4.53039C180.599 3.88582 180.713 3.28729 180.94 2.73481C181.167 2.18232 181.49 1.7035 181.906 1.29834C182.323 0.893187 182.816 0.580111 183.385 0.359116C183.972 0.119705 184.616 0 185.318 0C186.682 0 187.791 0.432781 188.643 1.29834C189.06 1.72192 189.383 2.22836 189.61 2.81768C189.856 3.38858 189.979 4.01473 189.979 4.69613V5.80111H187.08V4.86188C187.08 4.30939 186.919 3.83057 186.597 3.42541C186.275 3.02026 185.839 2.81768 185.289 2.81768C184.569 2.81768 184.086 3.03867 183.839 3.48066C183.612 3.90424 183.498 4.44751 183.498 5.1105V15.1657C183.498 15.7366 183.621 16.2155 183.868 16.6022C184.133 16.989 184.597 17.1823 185.261 17.1823C185.45 17.1823 185.649 17.1547 185.858 17.0994C186.085 17.0258 186.294 16.9153 186.483 16.768C186.654 16.6206 186.796 16.418 186.909 16.1602C187.023 15.9024 187.08 15.5801 187.08 15.1934V14.2265H189.979Z" fill="black"/>
<path d="M194.619 19.8343V0.165747H197.519V8.59116H201.101V0.165747H204V19.8343H201.101V11.0773H197.519V19.8343H194.619Z" fill="black"/>
</svg>
